<svg width="16" height="16" viewBox="0 0 16 16" fill="none" xmlns="http://www.w3.org/2000/svg">
<path d="M10.7935 1.33301H5.20683C2.78016 1.33301 1.3335 2.77967 1.3335 5.20634V10.7863C1.3335 13.2197 2.78016 14.6663 5.20683 14.6663H10.7868C13.2135 14.6663 14.6602 13.2197 14.6602 10.793V5.20634C14.6668 2.77967 13.2202 1.33301 10.7935 1.33301ZM11.5002 8.21967C11.5002 8.49301 11.2735 8.71967 11.0002 8.71967C10.7268 8.71967 10.5002 8.49301 10.5002 8.21967V6.20634L5.3535 11.353C5.2535 11.453 5.12683 11.4997 5.00016 11.4997C4.8735 11.4997 4.74683 11.453 4.64683 11.353C4.4535 11.1597 4.4535 10.8397 4.64683 10.6463L9.7935 5.49967H7.78016C7.50683 5.49967 7.28016 5.27301 7.28016 4.99967C7.28016 4.72634 7.50683 4.49967 7.78016 4.49967H11.0002C11.2735 4.49967 11.5002 4.72634 11.5002 4.99967V8.21967Z" fill="#A5A3AC"/>
</svg>
