<svg width="16" height="16" viewBox="0 0 16 16" fill="none" xmlns="http://www.w3.org/2000/svg">
<g clip-path="url(#clip0_7372_3377)">
<path fill-rule="evenodd" clip-rule="evenodd" d="M6.38515 11.3984C5.46945 12.7675 3.93503 14.5 1.89327 14.5C0.928081 14.5 0 14.1123 0 12.4282C0 8.13933 6.00154 1.5 11.57 1.5C14.7378 1.5 16 3.64446 16 6.0797C16 9.2055 13.9211 12.7796 11.8546 12.7796C11.1988 12.7796 10.877 12.4282 10.877 11.8709C10.877 11.7255 10.9018 11.568 10.9513 11.3984C10.2459 12.5736 8.88476 13.664 7.61021 13.664C6.68213 13.664 6.21191 13.0946 6.21191 12.295C6.21191 12.0042 6.27378 11.7013 6.38515 11.3984ZM13.9091 5.99502C13.9091 6.70464 13.48 7.05944 13 7.05944C12.5127 7.05944 12.0909 6.70464 12.0909 5.99502C12.0909 5.28541 12.5127 4.93062 13 4.93062C13.48 4.93062 13.9091 5.28541 13.9091 5.99502ZM11.1818 5.99504C11.1818 6.70464 10.7527 7.05944 10.2727 7.05944C9.78546 7.05944 9.36365 6.70464 9.36365 5.99504C9.36365 5.28541 9.78546 4.93062 10.2727 4.93062C10.7527 4.93062 11.1818 5.28541 11.1818 5.99504Z" fill="#F5F5F5"/>
</g>
<defs>
<clipPath id="clip0_7372_3377">
<rect width="16" height="16" fill="white"/>
</clipPath>
</defs>
</svg>
