<svg width="16" height="16" viewBox="0 0 16 16" fill="none" xmlns="http://www.w3.org/2000/svg">
<path d="M10.7939 1.33301C13.2203 1.33319 14.6668 2.78051 14.6602 5.20703V10.793C14.6602 13.2195 13.2136 14.6669 10.7871 14.667H5.20703C2.78036 14.667 1.33398 13.2195 1.33398 10.7861V5.20703C1.33398 2.78036 2.78036 1.33301 5.20703 1.33301H10.7939ZM9.88574 5.80566C10.1715 5.9893 10.4045 6.21706 10.584 6.48926C10.7701 6.76151 10.9058 7.05305 10.9922 7.36328C11.0852 7.67351 11.1318 7.97438 11.1318 8.26562C11.1318 8.67101 11.0522 9.05154 10.8926 9.40625C10.7396 9.76088 10.5234 10.0709 10.2441 10.3369C9.96484 10.6029 9.63277 10.8128 9.24707 10.9648C8.86808 11.1105 8.44901 11.1826 7.99023 11.1826C7.5381 11.1826 7.12217 11.1105 6.74316 10.9648C6.36414 10.8128 6.03203 10.6029 5.74609 10.3369C5.46685 10.0709 5.2506 9.76087 5.09766 9.40625C4.94471 9.05154 4.86816 8.67101 4.86816 8.26562C4.8682 7.97438 4.91066 7.67351 4.99707 7.36328C5.09016 7.05294 5.22672 6.7616 5.40625 6.48926C5.59234 6.21706 5.82854 5.9893 6.11426 5.80566L5.57617 5.14062C5.05754 5.48899 4.66539 5.94511 4.39941 6.50879C4.13354 7.07233 4.00006 7.65778 4 8.26562C4 8.804 4.09935 9.30178 4.29883 9.75781C4.49826 10.2074 4.77781 10.5999 5.13672 10.9355C5.49582 11.2713 5.91884 11.5312 6.4043 11.7148C6.88969 11.9048 7.42154 12 8 12C8.57189 12 9.1005 11.9049 9.58594 11.7148C10.078 11.5312 10.5042 11.2713 10.8633 10.9355C11.2222 10.5999 11.5017 10.2074 11.7012 9.75781C11.9007 9.30178 12 8.804 12 8.26562C11.9999 7.65778 11.8665 7.07233 11.6006 6.50879C11.3346 5.9451 10.9425 5.48899 10.4238 5.14062L9.88574 5.80566ZM7.46094 4V7.8291H8.49902V4H7.46094Z" fill="#A5A3AC"/>
</svg>
