<svg width="128" height="128" viewBox="0 0 128 128" fill="none" xmlns="http://www.w3.org/2000/svg">
<g clip-path="url(#clip0_7410_6563)">
<path d="M94.6436 13.3692C95.857 14.2657 97.4789 14.994 98.6139 15.9871C105.284 21.9116 105.009 32.8144 101.396 40.314C96.7558 49.9437 90.0266 57.9743 84.4286 66.9702C79.9739 73.9814 76.2062 81.4164 73.1792 89.1692C70.7956 95.2271 68.7063 101.783 67.2823 108.178C66.9014 109.888 66.3367 113.777 65.6952 115.46C65.4682 116.057 63.384 115.965 62.5756 116C61.2324 110.381 60.5555 105.585 58.6975 99.8731C55.6472 90.4961 51.7951 81.0773 46.8758 72.5479C42.4895 64.9428 37.4085 57.7781 32.467 50.5485C30.6859 47.9426 29.2869 45.0843 27.5784 42.5475C26.3496 42.9373 24.0659 44.013 23.0728 44.7887C24.0243 46.0767 26.0004 49.7914 27.0998 51.5068C30.0307 56.0799 33.1242 60.194 36.1309 64.6404C39.1712 69.1088 41.8959 73.6697 44.5735 78.3688C45.1555 79.39 45.8108 80.3884 46.2892 81.4633C44.7879 80.1429 43.2465 78.14 41.6116 76.6559C35.697 71.3938 29.2686 66.7551 22.4258 62.8119C19.872 61.376 17.2624 60.0444 14.6033 58.8199C10.8737 57.1063 7.47265 55.8606 4.24635 53.2636C15.9861 41.764 36.9721 36.4661 52.6083 32.7835C54.6092 32.3122 62.2976 30.5674 64.0389 30.7991C75.9112 32.3789 88.2447 35.7833 99.5407 39.7543C100.167 38.5605 100.615 36.6759 100.965 35.3306C97.2769 33.1797 76.8977 27.4924 72.5476 27.402C74.5136 26.5299 77.1517 25.7855 79.3821 24.8521C84.1737 22.847 91.717 17.7341 94.6436 13.3692Z" fill="#90F9FF"/>
<path d="M108.184 22.6654C109.049 23.2229 112.457 27.3359 113.504 28.3727C119.543 34.3553 124.78 38.9703 125 48.1435C123.261 46.6666 121.509 45.1482 119.627 43.8625C116.456 41.6975 113.039 40.2405 109.581 38.6665C108.956 40.1719 108.353 41.6869 107.774 43.211C109.651 43.8025 110.702 44.5356 112.382 45.4002C117.006 47.7796 119.926 49.6723 123.605 53.3697C121.24 55.2053 115.478 57.5876 112.622 58.9276C109.794 60.254 107.717 61.3195 104.955 62.8856C97.9105 66.9871 91.8943 71.2947 85.9441 76.991C84.5155 78.3587 83.1654 79.9843 81.8006 81.4463C83.1753 78.4391 84.9489 75.818 86.5077 72.9712C94.4404 58.4841 109.01 45.5359 108.952 27.8888C108.947 26.2309 108.522 24.2978 108.184 22.6654Z" fill="#90F9FF"/>
<path d="M32.9511 13.6943C33.0335 13.7044 33.1158 13.7146 33.1982 13.7248C34.1504 14.8327 35.5231 16.3593 36.5465 17.293C37.5698 18.2266 38.4838 18.8776 39.4641 19.639C44.2919 23.39 49.5064 25.5268 55.2423 27.3509C52.6803 27.5359 50.0858 28.275 47.5737 28.7821C39.4064 30.4306 32.1108 32.8679 24.354 35.913C18.5443 38.1936 13.0722 40.4771 7.83563 44.0283C6.18583 45.1957 4.58413 46.4927 3 47.7539C3.19549 46.9078 3.30799 45.7 3.46072 44.7949C3.76082 43.0813 4.25998 41.4095 4.94774 39.8144C6.54422 36.0902 11.4506 31.5569 14.2992 28.5117C16.2133 26.4655 18.5681 23.936 20.5539 21.9624C18.9807 26.3984 18.5859 30.3842 19.8405 35.0197C21.4095 34.3206 22.4057 34.0946 24.1197 33.2188C23.6468 28.3226 24.3481 23.5357 26.6693 19.1679C28.1167 16.4448 30.3203 15.0623 32.9511 13.6943Z" fill="#90F9FF"/>
<path d="M120.551 60.5802C120.664 60.6796 120.614 60.6402 120.665 60.8328C119.064 63.1752 115.471 66.6623 113.472 68.7308L102.232 80.4315L78.623 105.148C76.342 107.514 73.6619 110.666 71.4538 112.815L71.3311 112.715C71.135 112.035 73.6625 103.107 74.0881 101.959C79.5608 87.1947 93.5452 75.24 106.746 67.5584C111.143 65.0002 115.978 62.7356 120.551 60.5802Z" fill="#90F9FF"/>
<path d="M6.36123 60.2852C7.10156 60.4788 9.81852 61.9112 10.7802 62.3631C18.4819 65.9825 25.843 70.3007 32.6303 75.5216C40.0046 81.194 47.9796 89.4163 52.2421 97.773C53.6084 100.452 54.7846 104.248 55.571 107.182C55.9382 108.552 56.8624 111.513 57.0446 112.803C56.2757 112.468 48.7561 104.388 47.5774 103.178C36.0828 91.5952 24.7518 79.8472 13.588 67.9373C11.0956 65.2256 8.82021 63.1535 6.36123 60.2852Z" fill="#90F9FF"/>
<path d="M42.4703 12.0608C47.0601 11.9543 51.9946 12.0228 56.6083 12.0104L89.581 12.0033C86.2388 15.248 83.903 16.8994 79.7487 19.0908C74.6796 21.8285 69.5807 23.3561 64.0701 24.9124C57.4809 23.6509 48.5616 20.058 43.0301 16.169C41.4171 15.035 39.778 13.4214 38.2842 12.0857C39.5285 12.1517 41.196 12.0796 42.4703 12.0608Z" fill="#90F9FF"/>
</g>
<defs>
<clipPath id="clip0_7410_6563">
<rect width="128" height="128" fill="white"/>
</clipPath>
</defs>
</svg>
