<svg width="128" height="128" viewBox="0 0 128 128" fill="none" xmlns="http://www.w3.org/2000/svg">
<g clip-path="url(#clip0_7377_3672)">
<path d="M86.8271 105.257L66.6152 120.112L65.457 119.552V101.956L76.502 100.332L86.8271 105.257ZM62.457 118.101L46.3594 110.323L62.457 102.992V118.101ZM60.2402 100.705L43.1143 108.504L32.8848 99.0652L42.9258 93.3132L60.2402 100.705ZM110.926 71.4929L100.152 95.4646L89.5693 103.241L78.8809 98.1423L97.499 67.5378L110.926 71.4929ZM91.3262 44.6765L95.2363 65.4841L75.8203 97.4001L64.1562 99.115L43.8311 90.4373L28.9922 68.0173L43.3555 43.7029L53.4805 26.5603L63.6074 24.531L91.3262 44.6765ZM26.376 69.5017L40.6943 91.1345L30.5732 96.9324L21.0879 88.1804L17.2422 68.781L26.376 69.5017ZM110.353 68.196L98.1211 64.5935L94.1982 43.7166L94.8477 32.3201L110.353 68.196ZM40.2891 42.9929L26.4072 66.4949L17.708 65.8083L33.7207 33.2869L40.2891 42.9929ZM92.1787 26.4138L91.3486 40.9841L66.0596 22.6042L76.8232 7.98413L92.1787 26.4138ZM50.8604 25.0964L41.9775 40.1345L35.5547 30.6453L48.9893 20.4734L50.8604 25.0964ZM63.0928 21.574L53.4541 23.5056L51.5723 18.8572L72.0781 9.36694L63.0928 21.574Z" fill="#90F9FF"/>
<path d="M42.8296 110.283L63.9572 100.662M42.8296 110.283L63.9572 120.493M42.8296 110.283L30.3648 98.7815M15.3862 67.1303L19.7124 88.952L30.3648 98.7815M15.3862 67.1303L33.5164 30.3089M15.3862 67.1303L27.2241 68.0643M33.5164 30.3089L49.6459 18.0966M33.5164 30.3089L42.0648 42.9398M49.6459 18.0966L76.7503 5.55371M49.6459 18.0966L52.5307 25.2218M76.7503 5.55371L93.7112 25.9096M76.7503 5.55371L63.9572 22.9314M93.7112 25.9096L113 70.5402M93.7112 25.9096L92.6913 43.8138M113 70.5402L101.36 96.4389L89.7355 104.983M113 70.5402L96.8173 65.7739M63.9572 100.662V120.493M63.9572 100.662L76.7371 98.7815M63.9572 100.662L42.8296 91.6411M63.9572 120.493L66.7769 121.856L89.7355 104.983M76.7371 98.7815L96.8173 65.7739M76.7371 98.7815L89.7355 104.983M96.8173 65.7739L92.6913 43.8138M92.6913 43.8138L63.9572 22.9314M63.9572 22.9314L52.5307 25.2218M52.5307 25.2218L42.0648 42.9398M27.2241 68.0643L42.8296 91.6411M27.2241 68.0643L42.0648 42.9398M42.8296 91.6411L30.3648 98.7815" stroke="#131313" stroke-width="3"/>
</g>
<defs>
<clipPath id="clip0_7377_3672">
<rect width="128" height="128" fill="white"/>
</clipPath>
</defs>
</svg>
