<svg width="16" height="16" viewBox="0 0 16 16" fill="none" xmlns="http://www.w3.org/2000/svg">
<path fill-rule="evenodd" clip-rule="evenodd" d="M1.02135 7.45157C5.00953 5.75809 7.66894 4.64165 8.9996 4.10223C12.7988 2.56211 13.5882 2.29458 14.1028 2.28574C14.216 2.28379 14.469 2.31113 14.633 2.44076C14.7714 2.55021 14.8094 2.69807 14.8277 2.80184C14.8459 2.90562 14.8686 3.14202 14.8506 3.32673C14.6446 5.43505 13.7538 10.5514 13.3006 12.9127C13.1088 13.9119 12.7312 14.2469 12.3657 14.2797C11.5712 14.351 10.9679 13.768 10.1985 13.2764C8.9944 12.5071 8.31416 12.0283 7.14538 11.2777C5.79468 10.4102 6.67029 9.93336 7.44005 9.15416C7.6415 8.95024 11.1419 5.84715 11.2097 5.56566C11.2182 5.53045 11.226 5.39922 11.146 5.32992C11.066 5.26063 10.9479 5.28433 10.8627 5.30317C10.742 5.32988 8.81848 6.56899 5.09218 9.02048C4.5462 9.38584 4.05166 9.56392 3.60858 9.55456C3.12011 9.54432 2.18049 9.28544 1.48198 9.06408C0.625233 8.79272 -0.0556942 8.6492 0.00359929 8.18824C0.034483 7.94811 0.373734 7.70257 1.02135 7.45157Z" fill="#7E7C87"/>
</svg>
