<svg width="16" height="16" viewBox="0 0 16 16" fill="none" xmlns="http://www.w3.org/2000/svg">
<path d="M14.2999 9.09333V9.75999C14.2999 9.93999 14.1599 10.0867 13.9733 10.0933H12.9999C12.6466 10.0933 12.3266 9.83333 12.2999 9.48666C12.2799 9.27999 12.3599 9.08666 12.4933 8.95333C12.6133 8.82666 12.7799 8.75999 12.9599 8.75999H13.9666C14.1599 8.76666 14.2999 8.91333 14.2999 9.09333Z" fill="#7E7C87"/>
<path d="M11.9938 8.46C11.6605 8.78667 11.5005 9.27334 11.6338 9.78C11.8071 10.4 12.4138 10.7933 13.0538 10.7933H13.6338C14.0005 10.7933 14.3005 11.0933 14.3005 11.46V11.5867C14.3005 12.9667 13.1738 14.0933 11.7938 14.0933H4.14046C2.76046 14.0933 1.63379 12.9667 1.63379 11.5867V7.1C1.63379 6.28 2.02712 5.55334 2.63379 5.1C3.05379 4.78 3.57379 4.59334 4.14046 4.59334H11.7938C13.1738 4.59334 14.3005 5.72 14.3005 7.1V7.39334C14.3005 7.76 14.0005 8.06 13.6338 8.06H12.9538C12.5805 8.06 12.2405 8.20667 11.9938 8.46Z" fill="#7E7C87"/>
<path d="M10.7997 3.21333C10.9797 3.39333 10.8264 3.67333 10.573 3.67333L5.45305 3.66666C5.15971 3.66666 5.00638 3.30666 5.21971 3.1L6.29971 2.01333C7.21305 1.10666 8.69305 1.10666 9.60638 2.01333L10.773 3.19333C10.7797 3.19999 10.793 3.20666 10.7997 3.21333Z" fill="#7E7C87"/>
</svg>
