<svg width="16" height="16" viewBox="0 0 16 16" fill="none" xmlns="http://www.w3.org/2000/svg">
<path d="M14.2999 9.0931V9.75977C14.2999 9.93977 14.1599 10.0864 13.9733 10.0931H12.9999C12.6466 10.0931 12.3266 9.8331 12.2999 9.48643C12.2799 9.27977 12.3599 9.08643 12.4933 8.9531C12.6133 8.82643 12.7799 8.75977 12.9599 8.75977H13.9666C14.1599 8.76643 14.2999 8.9131 14.2999 9.0931Z" fill="#A5A3AC"/>
<path d="M11.9933 8.46042C11.66 8.78708 11.5 9.27375 11.6333 9.78042C11.8066 10.4004 12.4133 10.7938 13.0533 10.7938H13.6333C14 10.7938 14.3 11.0938 14.3 11.4604V11.5871C14.3 12.9671 13.1733 14.0938 11.7933 14.0938H4.13997C2.75997 14.0938 1.6333 12.9671 1.6333 11.5871V7.10042C1.6333 6.28042 2.02663 5.55375 2.6333 5.10042C3.0533 4.78042 3.5733 4.59375 4.13997 4.59375H11.7933C13.1733 4.59375 14.3 5.72042 14.3 7.10042V7.39375C14.3 7.76042 14 8.06042 13.6333 8.06042H12.9533C12.58 8.06042 12.24 8.20708 11.9933 8.46042Z" fill="#A5A3AC"/>
<path d="M10.8002 3.21301C10.9802 3.39301 10.8269 3.67301 10.5735 3.67301L5.45354 3.66634C5.1602 3.66634 5.00687 3.30634 5.2202 3.09967L6.3002 2.01301C7.21354 1.10634 8.69354 1.10634 9.60687 2.01301L10.7735 3.19301C10.7802 3.19967 10.7935 3.20634 10.8002 3.21301Z" fill="#A5A3AC"/>
</svg>
