<svg preserveAspectRatio="none" width="100%" height="100%" overflow="visible" style="display: block;" viewBox="0 0 12 12" fill="none" xmlns="http://www.w3.org/2000/svg">
<path id="Subtract" d="M8.7998 8.16561e-10C9.91991 8.16561e-10 10.4804 -0.000213548 10.9082 0.217773C11.2845 0.409508 11.5905 0.715544 11.7822 1.0918C12.0002 1.51962 12 2.08009 12 3.2002V8.7998C12 9.91991 12.0002 10.4804 11.7822 10.9082C11.5905 11.2845 11.2845 11.5905 10.9082 11.7822C10.4804 12.0002 9.91991 12 8.7998 12H3.2002C2.08009 12 1.51962 12.0002 1.0918 11.7822C0.715544 11.5905 0.409508 11.2845 0.217773 10.9082C-0.000213548 10.4804 8.16561e-10 9.91991 8.16561e-10 8.7998V3.2002C8.16561e-10 2.08009 -0.000213548 1.51962 0.217773 1.0918C0.409508 0.715544 0.715544 0.409508 1.0918 0.217773C1.51962 -0.000213548 2.08009 8.16561e-10 3.2002 8.16561e-10H8.7998ZM6 5.25098C5.58579 5.25098 5.25 5.58676 5.25 6.00098V8.22266C5.25026 8.63665 5.58595 8.97266 6 8.97266C6.41405 8.97266 6.74974 8.63665 6.75 8.22266V6.00098C6.75 5.58676 6.41421 5.25098 6 5.25098ZM6 3.02832C5.58579 3.02832 5.25 3.36411 5.25 3.77832C5.25026 4.19231 5.58595 4.52832 6 4.52832H6.00586C6.41977 4.52816 6.7556 4.19221 6.75586 3.77832C6.75586 3.36421 6.41993 3.02848 6.00586 3.02832H6Z" fill="var(--fill-0, #5F5D68)"/>
</svg>
