<svg width="26" height="22" viewBox="0 0 26 22" fill="none" xmlns="http://www.w3.org/2000/svg">
<path d="M19.5306 0.289631C19.7892 0.479275 20.1349 0.633345 20.3767 0.843433C21.7983 2.09668 21.7397 4.40305 20.9696 5.98949C19.9807 8.02656 18.5467 9.72534 17.3536 11.6283C16.4043 13.1114 15.6013 14.6842 14.9562 16.3243C14.4482 17.6057 14.003 18.9927 13.6995 20.3452C13.6183 20.707 13.498 21.5298 13.3613 21.8858C13.3129 22.012 12.8687 21.9926 12.6964 22C12.4102 20.8114 12.2659 19.7967 11.87 18.5885C11.2199 16.605 10.399 14.6125 9.35057 12.8082C8.4158 11.1994 7.33296 9.68382 6.27985 8.15449C5.90026 7.60325 5.60213 6.99861 5.23802 6.46198C4.97615 6.54444 4.48945 6.77197 4.27781 6.93607C4.48058 7.20853 4.90172 7.99434 5.13601 8.35721C5.76063 9.3246 6.41992 10.1949 7.06067 11.1355C7.70862 12.0807 8.2893 13.0455 8.85992 14.0395C8.98395 14.2556 9.12361 14.4668 9.22556 14.6942C8.90562 14.4149 8.57713 13.9912 8.22871 13.6772C6.96821 12.5641 5.59822 11.5828 4.13992 10.7487C3.59566 10.4449 3.03953 10.1632 2.47284 9.90421C1.678 9.54172 0.953189 9.2782 0.265616 8.72884C2.76754 6.29624 7.23996 5.17552 10.5723 4.39651C10.9987 4.29682 12.6372 3.92773 13.0083 3.97674C15.5385 4.31091 18.1669 5.03108 20.5742 5.8711C20.7077 5.61857 20.8031 5.2199 20.8778 4.93531C20.0918 4.48033 15.7487 3.27723 14.8216 3.25813C15.2406 3.07363 15.8028 2.91616 16.2782 2.71872C17.2993 2.29456 18.9069 1.21299 19.5306 0.289631Z" fill="#90F9FF"/>
<path d="M22.4162 2.25614C22.6007 2.37407 23.327 3.24413 23.55 3.46346C24.837 4.72901 25.9531 5.70525 26 7.64573C25.6295 7.33331 25.256 7.01212 24.8549 6.74015C24.1792 6.28216 23.451 5.97394 22.714 5.641C22.5809 5.95944 22.4523 6.27993 22.3289 6.60233C22.7289 6.72745 22.953 6.88253 23.311 7.06544C24.2964 7.56875 24.9186 7.96914 25.7027 8.75129C25.1988 9.13958 23.9706 9.64352 23.362 9.92699C22.7593 10.2076 22.3167 10.433 21.7281 10.7643C20.2268 11.6319 18.9447 12.5431 17.6766 13.7481C17.3721 14.0374 17.0844 14.3813 16.7936 14.6906C17.0865 14.0544 17.4645 13.5 17.7967 12.8977C19.4873 9.83317 22.5922 7.09414 22.58 3.3611C22.579 3.01038 22.4884 2.60146 22.4162 2.25614Z" fill="#90F9FF"/>
<path d="M6.38303 0.358419C6.40058 0.360545 6.41813 0.362698 6.43568 0.364852C6.63861 0.599228 6.93116 0.92217 7.14926 1.11966C7.36733 1.31716 7.56213 1.45487 7.77103 1.61595C8.79992 2.40942 9.91121 2.86143 11.1336 3.24732C10.5876 3.28643 10.0347 3.44279 9.49932 3.55006C7.75874 3.89879 6.20394 4.41437 4.55086 5.05851C3.31271 5.54095 2.14653 6.02401 1.03054 6.77523C0.678947 7.02217 0.337602 7.29654 0 7.56332C0.0416612 7.38434 0.0656379 7.12884 0.0981857 6.93739C0.162142 6.5749 0.268519 6.22123 0.415093 5.88382C0.755326 5.09599 1.80095 4.13704 2.40802 3.49287C2.81595 3.06002 3.31779 2.52491 3.74099 2.10744C3.40572 3.04581 3.32158 3.88897 3.58896 4.86955C3.92334 4.72167 4.13563 4.67385 4.50093 4.4886C4.40014 3.45285 4.54959 2.44025 5.04428 1.51629C5.35273 0.940243 5.82237 0.647804 6.38303 0.358419Z" fill="#90F9FF"/>
<path d="M25.0518 10.2766C25.0759 10.2976 25.0653 10.2893 25.0762 10.33C24.735 10.8255 23.9693 11.5632 23.5432 12.0007L21.1478 14.4759L16.1164 19.7044C15.6303 20.2049 15.0591 20.8717 14.5885 21.3263L14.5624 21.3052C14.5206 21.1612 15.0592 19.2727 15.1499 19.0298C16.3162 15.9066 19.2965 13.3777 22.1097 11.7527C23.0468 11.2116 24.0772 10.7325 25.0518 10.2766Z" fill="#90F9FF"/>
<path d="M0.716327 10.2142C0.874102 10.2551 1.45313 10.5581 1.65807 10.6537C3.29943 11.4194 4.86818 12.3328 6.31466 13.4373C7.88623 14.6372 9.58582 16.3765 10.4942 18.1443C10.7854 18.7109 11.0361 19.5139 11.2037 20.1347C11.2819 20.4245 11.4789 21.0509 11.5177 21.3237C11.3538 21.2528 9.7513 19.5436 9.50011 19.2877C7.05043 16.8375 4.63562 14.3523 2.25646 11.8329C1.72528 11.2593 1.24037 10.8209 0.716327 10.2142Z" fill="#90F9FF"/>
<path d="M8.41171 0.0128662C9.38986 -0.00967737 10.4415 0.00482446 11.4247 0.00220755L18.4517 0.000708487C17.7394 0.687073 17.2416 1.0364 16.3563 1.49998C15.276 2.0791 14.1893 2.40226 13.0149 2.73147C11.6107 2.4646 9.70986 1.70458 8.531 0.881896C8.18724 0.642013 7.83792 0.300671 7.51958 0.018127C7.78476 0.0320838 8.14013 0.016846 8.41171 0.0128662Z" fill="#90F9FF"/>
</svg>
