<svg width="107" height="40" viewBox="0 0 107 40" fill="none" xmlns="http://www.w3.org/2000/svg">
<path d="M19.5306 9.28963C19.7892 9.47927 20.1349 9.63334 20.3767 9.84343C21.7983 11.0967 21.7397 13.403 20.9696 14.9895C19.9807 17.0266 18.5467 18.7253 17.3536 20.6283C16.4043 22.1114 15.6013 23.6842 14.9562 25.3243C14.4482 26.6057 14.003 27.9927 13.6995 29.3452C13.6183 29.707 13.498 30.5298 13.3613 30.8858C13.3129 31.012 12.8687 30.9926 12.6964 31C12.4102 29.8114 12.2659 28.7967 11.87 27.5885C11.2199 25.605 10.399 23.6125 9.35057 21.8082C8.4158 20.1994 7.33296 18.6838 6.27985 17.1545C5.90026 16.6032 5.60213 15.9986 5.23802 15.462C4.97615 15.5444 4.48945 15.772 4.27781 15.9361C4.48058 16.2085 4.90172 16.9943 5.13601 17.3572C5.76063 18.3246 6.41992 19.1949 7.06067 20.1355C7.70862 21.0807 8.2893 22.0455 8.85992 23.0395C8.98395 23.2556 9.12361 23.4668 9.22556 23.6942C8.90562 23.4149 8.57713 22.9912 8.22871 22.6772C6.96821 21.5641 5.59822 20.5828 4.13992 19.7487C3.59566 19.4449 3.03953 19.1632 2.47284 18.9042C1.678 18.5417 0.953189 18.2782 0.265616 17.7288C2.76754 15.2962 7.23996 14.1755 10.5723 13.3965C10.9987 13.2968 12.6372 12.9277 13.0083 12.9767C15.5385 13.3109 18.1669 14.0311 20.5742 14.8711C20.7077 14.6186 20.8031 14.2199 20.8778 13.9353C20.0918 13.4803 15.7487 12.2772 14.8216 12.2581C15.2406 12.0736 15.8028 11.9162 16.2782 11.7187C17.2993 11.2946 18.9069 10.213 19.5306 9.28963Z" fill="#FAFAFA"/>
<path d="M22.4162 11.2561C22.6007 11.3741 23.327 12.2441 23.55 12.4635C24.837 13.729 25.9531 14.7052 26 16.6457C25.6295 16.3333 25.256 16.0121 24.8549 15.7401C24.1792 15.2822 23.451 14.9739 22.714 14.641C22.5809 14.9594 22.4523 15.2799 22.3289 15.6023C22.7289 15.7274 22.953 15.8825 23.311 16.0654C24.2964 16.5688 24.9186 16.9691 25.7027 17.7513C25.1988 18.1396 23.9706 18.6435 23.362 18.927C22.7593 19.2076 22.3167 19.433 21.7281 19.7643C20.2268 20.6319 18.9447 21.5431 17.6766 22.7481C17.3721 23.0374 17.0844 23.3813 16.7936 23.6906C17.0865 23.0544 17.4645 22.5 17.7967 21.8977C19.4873 18.8332 22.5922 16.0941 22.58 12.3611C22.579 12.0104 22.4884 11.6015 22.4162 11.2561Z" fill="#FAFAFA"/>
<path d="M6.38303 9.35842C6.40058 9.36054 6.41813 9.3627 6.43568 9.36485C6.63861 9.59923 6.93116 9.92217 7.14926 10.1197C7.36733 10.3172 7.56213 10.4549 7.77103 10.6159C8.79992 11.4094 9.91121 11.8614 11.1336 12.2473C10.5876 12.2864 10.0347 12.4428 9.49932 12.5501C7.75874 12.8988 6.20394 13.4144 4.55086 14.0585C3.31271 14.5409 2.14653 15.024 1.03054 15.7752C0.678947 16.0222 0.337602 16.2965 0 16.5633C0.0416612 16.3843 0.0656379 16.1288 0.0981857 15.9374C0.162142 15.5749 0.268519 15.2212 0.415093 14.8838C0.755326 14.096 1.80095 13.137 2.40802 12.4929C2.81595 12.06 3.31779 11.5249 3.74099 11.1074C3.40572 12.0458 3.32158 12.889 3.58896 13.8695C3.92334 13.7217 4.13563 13.6739 4.50093 13.4886C4.40014 12.4529 4.54959 11.4402 5.04428 10.5163C5.35273 9.94024 5.82237 9.6478 6.38303 9.35842Z" fill="#FAFAFA"/>
<path d="M25.0518 19.2766C25.0759 19.2976 25.0653 19.2893 25.0762 19.33C24.735 19.8255 23.9693 20.5632 23.5432 21.0007L21.1478 23.4759L16.1164 28.7044C15.6303 29.2049 15.0591 29.8717 14.5885 30.3263L14.5624 30.3052C14.5206 30.1612 15.0592 28.2727 15.1499 28.0298C16.3162 24.9066 19.2965 22.3777 22.1097 20.7527C23.0468 20.2116 24.0772 19.7325 25.0518 19.2766Z" fill="#FAFAFA"/>
<path d="M0.716327 19.2142C0.874102 19.2551 1.45313 19.5581 1.65807 19.6537C3.29943 20.4194 4.86818 21.3328 6.31466 22.4373C7.88623 23.6372 9.58582 25.3765 10.4942 27.1443C10.7854 27.7109 11.0361 28.5139 11.2037 29.1347C11.2819 29.4245 11.4789 30.0509 11.5177 30.3237C11.3538 30.2528 9.7513 28.5436 9.50011 28.2877C7.05043 25.8375 4.63562 23.3523 2.25646 20.8329C1.72528 20.2593 1.24037 19.8209 0.716327 19.2142Z" fill="#FAFAFA"/>
<path d="M8.41171 9.01287C9.38986 8.99032 10.4415 9.00482 11.4247 9.00221L18.4517 9.00071C17.7394 9.68707 17.2416 10.0364 16.3563 10.5C15.276 11.0791 14.1893 11.4023 13.0149 11.7315C11.6107 11.4646 9.70986 10.7046 8.531 9.8819C8.18724 9.64201 7.83792 9.30067 7.51958 9.01813C7.78476 9.03208 8.14013 9.01685 8.41171 9.01287Z" fill="#FAFAFA"/>
<path d="M42.14 28.22C40.6978 28.22 39.4267 27.9022 38.3267 27.2667C37.2389 26.6189 36.3833 25.7206 35.76 24.5717C35.1489 23.4228 34.8433 22.0967 34.8433 20.5933C34.8433 19.0533 35.1611 17.7089 35.7967 16.56C36.4322 15.4111 37.3244 14.5189 38.4733 13.8833C39.6222 13.2478 40.9606 12.93 42.4883 12.93C43.7228 12.93 44.8106 13.1439 45.7517 13.5717C46.6928 13.9872 47.4628 14.5861 48.0617 15.3683C48.6728 16.1506 49.0578 17.0856 49.2167 18.1733H45.9717C45.8372 17.3789 45.4644 16.7678 44.8533 16.34C44.2422 15.9 43.4539 15.68 42.4883 15.68C41.5717 15.68 40.7711 15.8817 40.0867 16.285C39.4144 16.6761 38.8889 17.2444 38.51 17.99C38.1433 18.7356 37.96 19.6094 37.96 20.6117C37.96 21.6383 38.1494 22.5306 38.5283 23.2883C38.9072 24.0339 39.4389 24.6144 40.1233 25.03C40.8078 25.4333 41.6144 25.635 42.5433 25.635C43.2278 25.635 43.845 25.525 44.395 25.305C44.945 25.085 45.3789 24.7794 45.6967 24.3883C46.0144 23.9972 46.1733 23.5572 46.1733 23.0683V22.5H42.2683V20.0983H46.925C47.6828 20.0983 48.2511 20.2817 48.63 20.6483C49.0211 21.015 49.2167 21.5589 49.2167 22.28V28H46.3567V26.2767H46.265C45.9228 26.9122 45.3972 27.395 44.6883 27.725C43.9794 28.055 43.13 28.22 42.14 28.22ZM56.8459 28.22C55.6604 28.22 54.6276 27.9878 53.7476 27.5233C52.8676 27.0467 52.1892 26.3806 51.7126 25.525C51.2359 24.6572 50.9976 23.6367 50.9976 22.4633C50.9976 21.29 51.2298 20.2817 51.6942 19.4383C52.1587 18.5828 52.8187 17.9289 53.6742 17.4767C54.542 17.0122 55.5626 16.78 56.7359 16.78C57.8848 16.78 58.8687 17 59.6876 17.44C60.5187 17.88 61.1542 18.5094 61.5942 19.3283C62.0342 20.1472 62.2542 21.125 62.2542 22.2617V23.2883H53.9126C54.0348 24.1072 54.3465 24.7306 54.8476 25.1583C55.3487 25.5861 56.0087 25.8 56.8276 25.8C57.4754 25.8 57.9887 25.69 58.3676 25.47C58.7465 25.25 59.0154 24.9139 59.1742 24.4617H62.2176C61.9731 25.635 61.3804 26.5578 60.4392 27.23C59.4981 27.89 58.3004 28.22 56.8459 28.22ZM53.9859 21.2717H59.3392C59.2415 20.575 58.9726 20.0556 58.5326 19.7133C58.0926 19.3589 57.4998 19.1817 56.7542 19.1817C56.0087 19.1817 55.3976 19.3589 54.9209 19.7133C54.4565 20.0678 54.1448 20.5872 53.9859 21.2717ZM64.8518 28V20.0067H63.3485V17H66.4285V18.7967H67.2352C67.6263 18.1611 68.1335 17.6722 68.7568 17.33C69.3802 16.9756 70.1502 16.7983 71.0668 16.7983C71.9468 16.7983 72.6985 16.9572 73.3218 17.275C73.9574 17.5806 74.4646 18.0389 74.8435 18.65H74.9168C75.7602 17.4156 77.013 16.7983 78.6752 16.7983C80.093 16.7983 81.2174 17.2139 82.0485 18.045C82.8796 18.8639 83.2952 19.9761 83.2952 21.3817V28H80.2518V21.9683C80.2518 20.3306 79.4757 19.5117 77.9235 19.5117C76.3713 19.5117 75.5952 20.3306 75.5952 21.9683V28H72.5518V21.9683C72.5518 20.3306 71.7635 19.5117 70.1868 19.5117C69.4291 19.5117 68.8546 19.7133 68.4635 20.1167C68.0846 20.52 67.8952 21.1372 67.8952 21.9683V28H64.8518ZM86.5872 28V20.0067H85.0838V17H88.1638V19.1633H88.9338C89.2272 18.3933 89.6916 17.8189 90.3272 17.44C90.9627 17.0611 91.6777 16.8717 92.4722 16.8717H93.4072V19.5117H92.3438C91.3905 19.5117 90.6877 19.7806 90.2355 20.3183C89.7955 20.8561 89.5755 21.565 89.5755 22.445V28H86.5872ZM98.2569 28.2017C96.9613 28.2017 95.9469 27.89 95.2136 27.2667C94.4802 26.6311 94.1136 25.8 94.1136 24.7733C94.1136 23.6856 94.4925 22.8483 95.2502 22.2617C96.008 21.675 97.0958 21.3817 98.5136 21.3817H101.667V20.96C101.667 19.7744 100.958 19.1817 99.5402 19.1817C98.3058 19.1817 97.5602 19.6094 97.3036 20.465H94.2786C94.523 19.255 95.0913 18.3383 95.9836 17.715C96.8758 17.0917 98.0613 16.78 99.5402 16.78C101.178 16.78 102.425 17.1467 103.28 17.88C104.148 18.6133 104.582 19.6828 104.582 21.0883V24.9933H106.012V28H102.932V26.2033H102.162C101.783 26.8389 101.276 27.3339 100.64 27.6883C100.005 28.0306 99.2102 28.2017 98.2569 28.2017ZM98.7152 25.8917C99.2897 25.8917 99.7969 25.7878 100.237 25.58C100.677 25.3722 101.025 25.0972 101.282 24.755C101.539 24.4006 101.667 24.0033 101.667 23.5633V23.3983H98.6602C97.5602 23.3983 97.0102 23.8078 97.0102 24.6267C97.0102 25.03 97.163 25.3417 97.4686 25.5617C97.7741 25.7817 98.1897 25.8917 98.7152 25.8917Z" fill="#FAFAFA"/>
</svg>
