<svg preserveAspectRatio="none" width="100%" height="100%" overflow="visible" style="display: block;" viewBox="0 0 16 13" fill="none" xmlns="http://www.w3.org/2000/svg">
<path id="Vector" fill-rule="evenodd" clip-rule="evenodd" d="M6.38515 9.89842C5.46945 11.2675 3.93503 13 1.89327 13C0.928081 13 0 12.6123 0 10.9282C0 6.63933 6.00154 0 11.57 0C14.7378 0 16 2.14446 16 4.5797C16 7.7055 13.9211 11.2796 11.8546 11.2796C11.1988 11.2796 10.877 10.9282 10.877 10.3709C10.877 10.2255 10.9018 10.068 10.9513 9.89842C10.2459 11.0736 8.88476 12.164 7.61021 12.164C6.68213 12.164 6.21191 11.5946 6.21191 10.795C6.21191 10.5042 6.27378 10.2013 6.38515 9.89842ZM13.9091 4.49502C13.9091 5.20464 13.48 5.55944 13 5.55944C12.5127 5.55944 12.0909 5.20464 12.0909 4.49502C12.0909 3.78541 12.5127 3.43062 13 3.43062C13.48 3.43062 13.9091 3.78541 13.9091 4.49502ZM11.1818 4.49504C11.1818 5.20464 10.7527 5.55944 10.2727 5.55944C9.78546 5.55944 9.36365 5.20464 9.36365 4.49504C9.36365 3.78541 9.78546 3.43062 10.2727 3.43062C10.7527 3.43062 11.1818 3.78541 11.1818 4.49504Z" fill="var(--fill-0, #AB9FF2)"/>
</svg>
