<svg width="16" height="16" viewBox="0 0 16 16" fill="none" xmlns="http://www.w3.org/2000/svg">
<path fill-rule="evenodd" clip-rule="evenodd" d="M1.02135 7.45108C5.00953 5.7576 7.66894 4.64116 8.9996 4.10175C12.7988 2.56163 13.5882 2.29409 14.1028 2.28525C14.216 2.28331 14.469 2.31064 14.633 2.44027C14.7714 2.54972 14.8094 2.69758 14.8277 2.80135C14.8459 2.90513 14.8686 3.14153 14.8506 3.32624C14.6446 5.43456 13.7538 10.5509 13.3006 12.9122C13.1088 13.9114 12.7312 14.2464 12.3657 14.2792C11.5712 14.3505 10.9679 13.7675 10.1985 13.2759C8.9944 12.5066 8.31416 12.0278 7.14538 11.2772C5.79468 10.4097 6.67029 9.93288 7.44005 9.15368C7.6415 8.94976 11.1419 5.84667 11.2097 5.56517C11.2182 5.52996 11.226 5.39873 11.146 5.32943C11.066 5.26014 10.9479 5.28384 10.8627 5.30268C10.742 5.32939 8.81848 6.5685 5.09218 9.02C4.5462 9.38536 4.05166 9.56343 3.60858 9.55407C3.12011 9.54383 2.18049 9.28495 1.48198 9.06359C0.625233 8.79223 -0.0556942 8.64871 0.00359929 8.18775C0.034483 7.94763 0.373734 7.70208 1.02135 7.45108Z" fill="#A5A3AC"/>
</svg>
