<svg width="16" height="16" viewBox="0 0 16 16" fill="none" xmlns="http://www.w3.org/2000/svg">
<path d="M11.5936 10.4467L8.90031 8H7.09364L4.40031 10.4467C3.64698 11.1267 3.40031 12.1733 3.76698 13.12C4.13364 14.06 5.02698 14.6667 6.03364 14.6667H9.96031C10.9736 14.6667 11.8603 14.06 12.227 13.12C12.5936 12.1733 12.347 11.1267 11.5936 10.4467ZM9.21364 12.0933H6.78698C6.53364 12.0933 6.33364 11.8867 6.33364 11.64C6.33364 11.3933 6.54031 11.1867 6.78698 11.1867H9.21364C9.46698 11.1867 9.66698 11.3933 9.66698 11.64C9.66698 11.8867 9.46031 12.0933 9.21364 12.0933Z" fill="#A5A3AC"/>
<path d="M12.2331 2.88016C11.8664 1.94016 10.9731 1.3335 9.96645 1.3335H6.03311C5.02645 1.3335 4.13311 1.94016 3.76645 2.88016C3.40645 3.82683 3.65311 4.8735 4.40645 5.5535L7.09978 8.00016H8.90645L11.5998 5.5535C12.3464 4.8735 12.5931 3.82683 12.2331 2.88016ZM9.21311 4.82016H6.78645C6.53311 4.82016 6.33311 4.6135 6.33311 4.36683C6.33311 4.12016 6.53978 3.9135 6.78645 3.9135H9.21311C9.46645 3.9135 9.66645 4.12016 9.66645 4.36683C9.66645 4.6135 9.45978 4.82016 9.21311 4.82016Z" fill="#A5A3AC"/>
</svg>
